<svg width="600" height="200" overflow="scroll" style="display: inline-block;"><line stroke="black" stroke-width="6" x1="354.954" x2="363.23199999999997" y1="90.71" y2="88.515"></line><line stroke="black" stroke-width="6" x1="354.954" x2="346.675" y1="90.71" y2="92.9"></line><line stroke="black" stroke-width="6" x1="354.954" x2="352.1825" y1="90.71" y2="79.815"></line><line stroke="black" stroke-width="6" x1="363.23199999999997" x2="381.072" y1="88.515" y2="130.68"></line><line stroke="black" stroke-width="6" x1="381.072" x2="394.3665" y1="130.68" y2="169.42000000000002"></line><line stroke="black" stroke-width="6" x1="394.3665" x2="393.991" y1="169.42000000000002" y2="172.436"></line><line stroke="black" stroke-width="6" x1="346.675" x2="351.677" y1="92.9" y2="138.665"></line><line stroke="black" stroke-width="6" x1="351.677" x2="355.8815" y1="138.665" y2="181.79250000000002"></line><line stroke="black" stroke-width="6" x1="355.8815" x2="356.2265" y1="181.79250000000002" y2="185.67705"></line><line stroke="black" stroke-width="6" x1="352.1825" x2="348.355" y1="79.815" y2="64.12"></line><line stroke="black" stroke-width="6" x1="348.355" x2="350.758" y1="64.12" y2="54.120000000000005"></line><line stroke="black" stroke-width="6" x1="348.355" x2="345.475" y1="64.12" y2="54.405"></line><line stroke="black" stroke-width="6" x1="348.355" x2="347.87" y1="64.12" y2="54.08500000000001"></line><line stroke="black" stroke-width="6" x1="350.758" x2="364.9355" y1="54.120000000000005" y2="51.224999999999994"></line><line stroke="black" stroke-width="6" x1="364.9355" x2="394.008" y1="51.224999999999994" y2="54.83500000000001"></line><line stroke="black" stroke-width="6" x1="394.008" x2="403.0988" y1="54.83500000000001" y2="35.254999999999995"></line><line stroke="black" stroke-width="6" x1="403.0988" x2="405.048" y1="35.254999999999995" y2="27.379999999999995"></line><line stroke="black" stroke-width="6" x1="345.475" x2="331.545" y1="54.405" y2="48.44999999999999"></line><line stroke="black" stroke-width="6" x1="331.545" x2="309.575" y1="48.44999999999999" y2="34.120000000000005"></line><line stroke="black" stroke-width="6" x1="309.575" x2="302" y1="34.120000000000005" y2="13.365000000000009"></line><line stroke="black" stroke-width="6" x1="302" x2="299.98" y1="13.365000000000009" y2="5.685000000000002"></line><line stroke="black" stroke-width="6" x1="347.87" x2="349.19" y1="54.08500000000001" y2="41.19499999999999"></line><line stroke="black" stroke-width="6" x1="349.19" x2="350.928" y1="41.19499999999999" y2="36.58500000000001"></line><circle cx="354.954" cy="90.71" r="5" fill="black"></circle><circle cx="363.23199999999997" cy="88.515" r="5" fill="black"></circle><circle cx="381.072" cy="130.68" r="5" fill="black"></circle><circle cx="394.3665" cy="169.42000000000002" r="5" fill="black"></circle><circle cx="393.991" cy="172.436" r="5" fill="black"></circle><circle cx="346.675" cy="92.9" r="5" fill="black"></circle><circle cx="351.677" cy="138.665" r="5" fill="black"></circle><circle cx="355.8815" cy="181.79250000000002" r="5" fill="black"></circle><circle cx="356.2265" cy="185.67705" r="5" fill="black"></circle><circle cx="352.1825" cy="79.815" r="5" fill="black"></circle><circle cx="348.355" cy="64.12" r="5" fill="black"></circle><circle cx="350.758" cy="54.120000000000005" r="5" fill="black"></circle><circle cx="364.9355" cy="51.224999999999994" r="5" fill="black"></circle><circle cx="394.008" cy="54.83500000000001" r="5" fill="black"></circle><circle cx="403.0988" cy="35.254999999999995" r="5" fill="black"></circle><circle cx="405.048" cy="27.379999999999995" r="5" fill="black"></circle><circle cx="345.475" cy="54.405" r="5" fill="black"></circle><circle cx="331.545" cy="48.44999999999999" r="5" fill="black"></circle><circle cx="309.575" cy="34.120000000000005" r="5" fill="black"></circle><circle cx="302" cy="13.365000000000009" r="5" fill="black"></circle><circle cx="299.98" cy="5.685000000000002" r="5" fill="black"></circle><circle cx="347.87" cy="54.08500000000001" r="5" fill="black"></circle><circle cx="349.19" cy="41.19499999999999" r="5" fill="black"></circle><circle cx="350.928" cy="36.58500000000001" r="8" fill="black"></circle></svg>