<?xml version="1.0" encoding="utf-8"?>
<!DOCTYPE svg PUBLIC "-//W3C//DTD SVG 1.1//EN" "http://www.w3.org/Graphics/SVG/1.1/DTD/svg11.dtd">
<svg style="width:308px;height:308px;" version="1.1" id="图形" xmlns="http://www.w3.org/2000/svg" xmlns:xlink="http://www.w3.org/1999/xlink" x="0px" y="0px" width="1026px" height="1024px" viewBox="0 0 1026 1024" enable-background="new 0 0 1026 1024" xml:space="preserve">
  <path class="svgpath" data-index="path_0" fill="#666666" d="M511.922249 64.451802c246.736844 0 447.47147 200.682451 447.47147 447.35382 0 60.285965-11.838671 118.794902-35.188638 173.903238-22.573476 53.276064-54.891451 101.167845-96.056715 142.341293-41.165264 41.176517-89.047837 73.5037-142.31674 96.083314-55.105268 23.358151-113.617273 35.201937-173.908354 35.201937-60.292103 0-118.803086-11.843786-173.909377-35.201937-53.268903-22.579615-101.150453-54.906797-142.31674-96.083314-41.164241-41.173448-73.482216-89.064206-96.055692-142.341293-23.349967-55.108337-35.188638-113.618297-35.188638-173.903238C64.45078 265.134253 265.185406 64.451802 511.922249 64.451802M511.922249 0c-282.251833 0-511.922249 229.553789-511.922249 511.805622 0 282.194542 229.670416 511.981585 511.922249 511.981585 282.251833 0 511.923272-229.787043 511.923272-511.981585C1023.844498 229.553789 794.173059 0 511.922249 0L511.922249 0zM546.113419 794.396082 470.733456 794.396082 470.733456 715.126504 546.113419 715.126504 546.113419 794.396082ZM669.294112 438.077875c-8.039083 16.844427-25.138249 37.82707-51.291358 62.946904-26.170501 25.139272-43.524404 43.00879-52.068872 53.622876-8.54856 10.630455-15.035685 23.318253-19.428638 38.080785-4.411368 14.764578-6.350037 34.584019-5.828284 59.450138l-68.388477 0c0-29.005357 2.327426-52.187545 6.994555-69.552702 4.658945-17.347765 11.656569-32.507238 20.980596-45.463073 9.32812-12.941513 26.154132-31.981393 50.516913-57.119642 24.343343-25.120857 40.019454-43.382201 47.016055-54.79017 6.996601-11.388531 10.488252-28.363908 10.488252-50.899532 0-22.534601-8.039083-42.474761-24.089628-59.838894-16.066914-17.348788-39.380051-26.035459-69.943505-26.035459-68.904092 0-103.36023 40.934056-103.36023 122.788867l-68.382339 0c1.030206-37.30634 5.436458-65.669225 13.20955-85.098886 7.766954-19.423522 20.204105-36.776403 37.304294-52.067849 17.093027-15.274054 36.138023-26.544935 57.119642-33.80139 20.982642-7.251339 43.12644-10.880078 66.439577-10.880078 47.139843 0 86.38383 13.862253 117.736051 41.574481 31.340968 27.723482 47.017078 64.637996 47.017078 110.740472C681.335346 402.463651 677.315804 421.246748 669.294112 438.077875L669.294112 438.077875z" />

</svg>
